<svg id="SvgjsSvg1016" x="0px" y="0px" xmlns="http://www.w3.org/2000/svg" version="1.1" xmlns:xlink="http://www.w3.org/1999/xlink" xmlns:svgjs="http://svgjs.com/svgjs"><defs id="SvgjsDefs1017"></defs><g id="SvgjsG1018"><svg xmlns="http://www.w3.org/2000/svg" enable-background="new 0 0 429.896 429.896" viewBox="0 0 429.896 429.896" x="0px" y="0px"><path d="M315.138 129.72c3.839 0 7.678-1.465 10.606-4.394l14.884-14.884c.014-.014.028-.027.041-.041l30.975-30.975c5.857-5.857 5.857-15.355 0-21.213-5.857-5.857-15.355-5.857-21.213 0l-45.899 45.899c-5.858 5.857-5.858 15.355 0 21.213C307.46 128.255 311.299 129.72 315.138 129.72zM325.472 304.531c-5.857-5.857-15.355-5.857-21.213 0-5.858 5.857-5.858 15.355 0 21.213l14.882 14.882c.014.015.029.029.043.043l30.974 30.974c2.929 2.929 6.768 4.394 10.606 4.394s7.678-1.465 10.606-4.394c5.858-5.857 5.858-15.355 0-21.213L325.472 304.531zM103.84 304.259l-45.898 45.899c-5.857 5.857-5.857 15.355 0 21.213 2.929 2.929 6.768 4.394 10.606 4.394s7.678-1.465 10.606-4.394l30.974-30.975c.015-.015.029-.028.043-.043l14.882-14.882c5.857-5.857 5.857-15.355 0-21.213C119.196 298.401 109.698 298.401 103.84 304.259zM89.188 110.129c.02.02.039.038.058.058l14.867 14.867c2.93 2.93 6.768 4.394 10.607 4.394 3.838 0 7.678-1.465 10.606-4.394 5.858-5.857 5.858-15.355 0-21.213L79.428 57.941c-5.859-5.858-15.355-5.858-21.213 0-5.858 5.857-5.858 15.354 0 21.213L89.188 110.129z" fill="#45a29e" class="color000 svgShape"></path><path d="M414.896,199.948h-80.888c-6.789-54.197-49.862-97.271-104.06-104.059V15c0-8.284-6.716-15-15-15s-15,6.716-15,15v80.889
		c-54.197,6.789-97.271,49.862-104.06,104.059H15c-8.284,0-15,6.716-15,15s6.716,15,15,15h80.888
		c6.789,54.197,49.862,97.271,104.06,104.059v80.889c0,8.284,6.716,15,15,15s15-6.716,15-15v-80.889
		c54.197-6.789,97.271-49.862,104.06-104.059h80.888c8.284,0,15-6.716,15-15S423.181,199.948,414.896,199.948z M214.948,304.943
		c-49.624,0-89.996-40.372-89.996-89.995s40.372-89.995,89.996-89.995s89.996,40.372,89.996,89.995S264.572,304.943,214.948,304.943
		z" fill="#45a29e" class="color000 svgShape"></path></svg></g></svg>