<svg id="SvgjsSvg1022" x="0px" y="0px" xmlns="http://www.w3.org/2000/svg" version="1.1" xmlns:xlink="http://www.w3.org/1999/xlink" xmlns:svgjs="http://svgjs.com/svgjs"><defs id="SvgjsDefs1023"></defs><g id="SvgjsG1024"><svg xmlns="http://www.w3.org/2000/svg" enable-background="new 0 0 297.002 297.002" viewBox="0 0 297.002 297.002" x="0px" y="0px"><path d="M296.874 207.046c-1.436-20.718-15.543-38.337-34.553-44.976 5.068-7.945 7.461-17.26 6.791-26.936-1.492-21.545-18.843-39.225-40.361-41.124-3.621-.319-7.203-.209-10.715.33-7.609-14.187-22.579-23.468-39.182-23.468-13.828 0-26.507 6.453-34.76 16.801-10.475-7.163-23.13-11.361-36.75-11.361-35.995 0-65.279 29.284-65.279 65.279 0 27.832 17.516 51.633 42.097 61.004-.234 1.466-.408 2.951-.512 4.452-1 14.442 3.867 28.203 13.705 38.745 9.7 10.396 23.416 16.357 37.629 16.357H245.54c14.213 0 27.929-5.962 37.629-16.357C293.007 235.25 297.874 221.489 296.874 207.046zM178.854 90.872c11.001 0 20.698 7.406 23.582 18.011.747 2.747 2.63 5.046 5.177 6.319 2.547 1.275 5.517 1.4 8.161.352 3.572-1.418 7.348-1.964 11.218-1.622 11.818 1.044 21.349 10.753 22.167 22.584.478 6.88-1.833 13.426-6.505 18.432-1.896 2.033-4.071 3.688-6.44 4.946-8.611-17.06-26.292-28.302-45.952-28.302-6.274 0-12.346 1.149-17.987 3.262-1.291-12.528-6.151-24.005-13.527-33.425C163.222 94.97 170.674 90.872 178.854 90.872zM62.063 141.591c0-24.967 20.313-45.279 45.279-45.279s45.279 20.313 45.279 45.279c0 2.382-.195 4.717-.552 7-3.093 3.419-5.746 7.267-7.847 11.467-4.525-.827-9.153-1.038-13.845-.623-16.507 1.457-30.89 10.939-39.224 24.426C74.161 177.334 62.063 160.855 62.063 141.591zM268.547 232.147c-6.02 6.45-14.189 10.003-23.007 10.003H134.982c-8.817 0-16.987-3.553-23.007-10.003-6.014-6.443-8.987-14.867-8.374-23.718 1.055-15.231 13.322-27.729 28.536-29.072.96-.085 1.915-.127 2.865-.127 3.977 0 7.856.742 11.57 2.215 2.645 1.05 5.614.922 8.161-.352s4.429-3.572 5.176-6.319c3.711-13.649 16.192-23.183 30.352-23.183 14.158 0 26.64 9.533 30.352 23.183.747 2.747 2.63 5.046 5.176 6.319 2.549 1.275 5.516 1.401 8.162.352 4.601-1.824 9.459-2.521 14.435-2.088 15.213 1.343 27.48 13.841 28.535 29.071C277.534 217.28 274.561 225.703 268.547 232.147zM107.343 68.672c5.522 0 10-4.478 10-10V44.853c0-5.522-4.478-10-10-10s-10 4.478-10 10v13.819C97.343 64.195 101.82 68.672 107.343 68.672zM33.874 141.564c0-5.522-4.478-10-10-10H10c-5.522 0-10 4.478-10 10s4.478 10 10 10h13.874C29.396 151.564 33.874 147.086 33.874 141.564zM41.64 193.152l-9.772 9.772c-3.905 3.905-3.905 10.237 0 14.143 1.953 1.952 4.512 2.929 7.071 2.929s5.118-.977 7.071-2.929l9.772-9.772c3.905-3.905 3.905-10.237 0-14.143C51.876 189.247 45.546 189.247 41.64 193.152zM41.64 90.031c1.953 1.952 4.512 2.929 7.071 2.929s5.118-.977 7.071-2.929c3.905-3.905 3.905-10.237 0-14.143l-9.772-9.772c-3.906-3.904-10.236-3.904-14.143 0-3.905 3.905-3.905 10.237 0 14.143L41.64 90.031z" fill="#45a29e" class="color000 svgShape"></path></svg></g></svg>